<svg width="193" height="192" viewBox="0 0 193 192" fill="none" xmlns="http://www.w3.org/2000/svg">
<path d="M96.272 192.133C149.328 192.133 192.338 149.123 192.338 96.0665C192.338 43.0104 149.328 0 96.272 0C43.2159 0 0.205444 43.0104 0.205444 96.0665C0.205444 149.123 43.2159 192.133 96.272 192.133Z" fill="#FF4E00"/>
<path d="M62.2096 125.339L61.0121 117.489C58.3857 120.375 55.1786 122.673 51.6013 124.232C48.0241 125.792 44.1575 126.577 40.2553 126.536C29.6108 126.536 22.958 120.15 22.958 110.171C22.958 95.5343 35.4653 89.6799 60.0807 87.1518V84.6237C60.0807 77.1726 55.6898 74.6445 48.904 74.6445C42.1181 74.6445 34.9331 76.9065 28.5464 79.7006L27.0827 70.2537C34.1347 67.4595 40.7875 65.3306 49.8353 65.3306C64.0723 65.3306 70.9913 71.052 70.9913 84.2246V125.339H62.0765H62.2096ZM60.0807 95.5343C38.3925 97.6632 33.8686 103.518 33.8686 109.638C33.8686 115.759 37.062 117.489 42.6503 117.489C48.2387 117.489 55.1576 114.295 60.0807 109.239V95.5343ZM96.5381 90.6112V125.339H85.6274V66.6611H94.4092L96.2719 78.6362C100.397 71.9834 107.183 65.9959 116.896 65.4636L118.625 75.9751C108.779 76.3742 100.53 82.894 96.5381 90.6112ZM146.168 126.536C138.69 126.362 131.356 124.449 124.746 120.948L126.343 110.57C132.413 114.884 139.652 117.251 147.099 117.356C154.551 117.356 159.074 114.561 159.074 109.638C159.074 104.715 155.748 102.187 145.104 99.6591C131.266 96.1996 125.81 92.0749 125.81 81.5634C125.81 71.052 133.661 65.3306 146.567 65.3306C153.206 65.2982 159.779 66.658 165.86 69.3223L164.131 79.7006C158.704 76.551 152.573 74.8126 146.301 74.6445C139.648 74.6445 136.189 77.1726 136.189 81.4304C136.189 85.6882 139.116 87.551 148.43 89.946C162.933 93.6715 169.453 97.7963 169.453 108.973C169.453 120.15 161.336 126.536 146.168 126.536V126.536Z" fill="white"/>
</svg>
