<svg width="320" height="118" viewBox="0 0 320 118" fill="none" xmlns="http://www.w3.org/2000/svg"><path d="M198.647 77.602L182.107 61.0531C180.867 59.8133 179.279 59.1429 177.662 58.9867C182.649 52.7694 185.652 44.899 185.652 36.3214C185.643 16.2918 169.351 0 149.321 0C129.292 0 113 16.2918 113 36.3214C113 56.351 129.292 72.6429 149.321 72.6429C156.88 72.6429 163.905 70.3194 169.718 66.352C169.764 68.152 170.453 69.9429 171.831 71.3204L188.38 87.8694C189.794 89.2929 191.658 90 193.513 90C195.368 90 197.233 89.2929 198.647 87.8694C201.485 85.0316 201.485 80.4398 198.647 77.602ZM149.321 60.5388C135.968 60.5388 125.104 49.6837 125.104 36.3214C125.104 22.9684 135.968 12.1041 149.321 12.1041C162.674 12.1041 173.539 22.9684 173.539 36.3214C173.539 49.6837 162.674 60.5388 149.321 60.5388Z" fill="#ccc"/><path d="M98.1777 106.575H99.9971C100.8 106.575 101.403 106.695 101.808 106.936C102.212 107.176 102.414 107.584 102.414 108.162C102.414 108.411 102.366 108.635 102.269 108.834C102.175 109.03 102.038 109.193 101.856 109.322C101.674 109.451 101.45 109.54 101.184 109.59V109.634C101.465 109.678 101.714 109.758 101.931 109.875C102.147 109.993 102.317 110.157 102.44 110.368C102.563 110.579 102.625 110.847 102.625 111.172C102.625 111.567 102.533 111.901 102.348 112.174C102.167 112.446 101.909 112.653 101.575 112.793C101.241 112.931 100.845 113 100.388 113H98.1777V106.575ZM98.9248 109.331H100.155C100.715 109.331 101.102 109.238 101.315 109.054C101.532 108.869 101.641 108.6 101.641 108.245C101.641 107.879 101.512 107.615 101.254 107.454C100.999 107.293 100.592 107.212 100.032 107.212H98.9248V109.331ZM98.9248 109.959V112.363H100.261C100.832 112.363 101.236 112.251 101.474 112.029C101.711 111.803 101.83 111.5 101.83 111.119C101.83 110.876 101.775 110.668 101.667 110.495C101.562 110.322 101.389 110.19 101.148 110.1C100.911 110.006 100.593 109.959 100.195 109.959H98.9248ZM105.741 108.096C106.151 108.096 106.502 108.187 106.795 108.368C107.088 108.55 107.312 108.805 107.468 109.133C107.623 109.458 107.701 109.839 107.701 110.275V110.728H104.374C104.383 111.293 104.523 111.724 104.796 112.02C105.068 112.316 105.452 112.464 105.947 112.464C106.252 112.464 106.521 112.436 106.756 112.38C106.99 112.325 107.233 112.243 107.485 112.134V112.776C107.242 112.884 107 112.963 106.76 113.013C106.523 113.063 106.242 113.088 105.917 113.088C105.454 113.088 105.049 112.994 104.704 112.807C104.361 112.616 104.094 112.338 103.904 111.972C103.713 111.605 103.618 111.157 103.618 110.627C103.618 110.108 103.705 109.66 103.877 109.282C104.053 108.901 104.299 108.608 104.616 108.403C104.935 108.198 105.31 108.096 105.741 108.096ZM105.732 108.693C105.342 108.693 105.032 108.821 104.8 109.076C104.569 109.331 104.431 109.687 104.387 110.144H106.936C106.933 109.856 106.888 109.604 106.8 109.388C106.715 109.168 106.584 108.998 106.409 108.878C106.233 108.755 106.007 108.693 105.732 108.693ZM110.285 115.162C109.652 115.162 109.164 115.043 108.821 114.806C108.479 114.572 108.307 114.242 108.307 113.817C108.307 113.516 108.402 113.258 108.593 113.044C108.786 112.83 109.053 112.688 109.393 112.618C109.267 112.559 109.158 112.471 109.067 112.354C108.979 112.237 108.936 112.102 108.936 111.95C108.936 111.774 108.984 111.62 109.081 111.488C109.18 111.354 109.331 111.225 109.533 111.102C109.281 110.999 109.076 110.826 108.918 110.583C108.763 110.337 108.685 110.051 108.685 109.726C108.685 109.38 108.757 109.086 108.9 108.843C109.044 108.597 109.252 108.409 109.524 108.28C109.797 108.151 110.126 108.087 110.513 108.087C110.598 108.087 110.683 108.091 110.768 108.1C110.856 108.106 110.939 108.116 111.019 108.131C111.098 108.143 111.167 108.157 111.225 108.175H112.877V108.645L111.99 108.755C112.078 108.869 112.151 109.007 112.209 109.168C112.268 109.329 112.297 109.508 112.297 109.704C112.297 110.185 112.135 110.567 111.81 110.851C111.484 111.132 111.038 111.273 110.469 111.273C110.334 111.273 110.197 111.261 110.056 111.238C109.913 111.317 109.803 111.405 109.727 111.501C109.653 111.598 109.617 111.709 109.617 111.835C109.617 111.929 109.645 112.004 109.7 112.06C109.759 112.115 109.842 112.156 109.951 112.183C110.059 112.206 110.189 112.218 110.342 112.218H111.19C111.714 112.218 112.116 112.328 112.394 112.547C112.675 112.767 112.816 113.088 112.816 113.51C112.816 114.043 112.599 114.452 112.166 114.736C111.732 115.02 111.105 115.162 110.285 115.162ZM110.307 114.591C110.705 114.591 111.035 114.55 111.295 114.468C111.559 114.389 111.755 114.273 111.884 114.121C112.016 113.971 112.082 113.792 112.082 113.584C112.082 113.391 112.038 113.245 111.95 113.145C111.862 113.048 111.733 112.984 111.563 112.952C111.394 112.917 111.186 112.899 110.939 112.899H110.104C109.888 112.899 109.699 112.933 109.538 113C109.376 113.067 109.252 113.167 109.164 113.299C109.079 113.431 109.037 113.595 109.037 113.791C109.037 114.052 109.146 114.25 109.366 114.384C109.586 114.522 109.899 114.591 110.307 114.591ZM110.496 110.741C110.844 110.741 111.106 110.653 111.282 110.478C111.458 110.302 111.546 110.045 111.546 109.708C111.546 109.348 111.457 109.079 111.278 108.9C111.099 108.718 110.835 108.627 110.487 108.627C110.153 108.627 109.895 108.721 109.713 108.909C109.535 109.093 109.445 109.364 109.445 109.722C109.445 110.05 109.536 110.302 109.718 110.478C109.899 110.653 110.159 110.741 110.496 110.741ZM114.556 108.184V113H113.827V108.184H114.556ZM114.2 106.382C114.32 106.382 114.423 106.421 114.508 106.5C114.596 106.577 114.64 106.697 114.64 106.861C114.64 107.022 114.596 107.142 114.508 107.221C114.423 107.3 114.32 107.34 114.2 107.34C114.074 107.34 113.969 107.3 113.884 107.221C113.802 107.142 113.761 107.022 113.761 106.861C113.761 106.697 113.802 106.577 113.884 106.5C113.969 106.421 114.074 106.382 114.2 106.382ZM118.384 108.096C118.955 108.096 119.387 108.236 119.68 108.518C119.973 108.796 120.12 109.244 120.12 109.862V113H119.399V109.911C119.399 109.509 119.307 109.209 119.122 109.01C118.94 108.811 118.661 108.711 118.283 108.711C117.75 108.711 117.375 108.862 117.158 109.164C116.941 109.465 116.833 109.903 116.833 110.478V113H116.103V108.184H116.692L116.802 108.878H116.841C116.944 108.708 117.074 108.566 117.232 108.452C117.391 108.334 117.568 108.247 117.764 108.188C117.96 108.126 118.167 108.096 118.384 108.096ZM125.516 112.49C125.636 112.49 125.759 112.48 125.885 112.459C126.011 112.439 126.114 112.414 126.193 112.385V112.952C126.108 112.99 125.989 113.022 125.837 113.048C125.688 113.075 125.541 113.088 125.397 113.088C125.143 113.088 124.911 113.044 124.703 112.956C124.495 112.865 124.328 112.713 124.202 112.499C124.079 112.285 124.018 111.989 124.018 111.611V108.755H123.332V108.399L124.022 108.113L124.312 107.067H124.751V108.184H126.162V108.755H124.751V111.589C124.751 111.891 124.82 112.117 124.958 112.266C125.099 112.416 125.285 112.49 125.516 112.49ZM126.408 108.184H127.19L128.254 110.979C128.315 111.143 128.373 111.301 128.425 111.453C128.478 111.603 128.525 111.746 128.566 111.884C128.607 112.021 128.639 112.155 128.663 112.284H128.693C128.734 112.137 128.793 111.945 128.869 111.708C128.945 111.468 129.027 111.223 129.115 110.974L130.122 108.184H130.908L128.812 113.708C128.701 114.003 128.57 114.261 128.421 114.481C128.274 114.701 128.096 114.869 127.885 114.986C127.674 115.106 127.419 115.167 127.12 115.167C126.982 115.167 126.861 115.158 126.755 115.14C126.65 115.125 126.559 115.108 126.483 115.087V114.503C126.547 114.518 126.625 114.531 126.716 114.542C126.81 114.554 126.906 114.56 127.006 114.56C127.188 114.56 127.344 114.525 127.476 114.455C127.611 114.387 127.727 114.288 127.823 114.156C127.92 114.024 128.003 113.867 128.074 113.686L128.337 113.009L126.408 108.184ZM133.94 108.096C134.541 108.096 135.02 108.302 135.377 108.715C135.735 109.128 135.914 109.75 135.914 110.579C135.914 111.126 135.832 111.586 135.667 111.958C135.503 112.331 135.272 112.612 134.973 112.802C134.677 112.993 134.327 113.088 133.923 113.088C133.668 113.088 133.444 113.054 133.25 112.987C133.057 112.919 132.892 112.829 132.754 112.714C132.616 112.6 132.502 112.476 132.411 112.341H132.358C132.367 112.455 132.377 112.593 132.389 112.754C132.404 112.915 132.411 113.056 132.411 113.176V115.153H131.677V108.184H132.279L132.376 108.896H132.411C132.505 108.749 132.619 108.616 132.754 108.496C132.889 108.373 133.053 108.276 133.246 108.206C133.442 108.132 133.674 108.096 133.94 108.096ZM133.813 108.711C133.479 108.711 133.209 108.775 133.004 108.904C132.802 109.033 132.654 109.227 132.561 109.484C132.467 109.739 132.417 110.06 132.411 110.447V110.587C132.411 110.995 132.455 111.339 132.543 111.62C132.634 111.901 132.782 112.115 132.987 112.262C133.195 112.408 133.473 112.481 133.822 112.481C134.121 112.481 134.37 112.401 134.569 112.24C134.768 112.079 134.916 111.854 135.013 111.567C135.112 111.277 135.162 110.945 135.162 110.57C135.162 110.001 135.051 109.55 134.828 109.216C134.608 108.879 134.27 108.711 133.813 108.711ZM137.917 108.184V113H137.188V108.184H137.917ZM137.562 106.382C137.682 106.382 137.784 106.421 137.869 106.5C137.957 106.577 138.001 106.697 138.001 106.861C138.001 107.022 137.957 107.142 137.869 107.221C137.784 107.3 137.682 107.34 137.562 107.34C137.436 107.34 137.33 107.3 137.245 107.221C137.163 107.142 137.122 107.022 137.122 106.861C137.122 106.697 137.163 106.577 137.245 106.5C137.33 106.421 137.436 106.382 137.562 106.382ZM141.745 108.096C142.316 108.096 142.749 108.236 143.042 108.518C143.334 108.796 143.481 109.244 143.481 109.862V113H142.76V109.911C142.76 109.509 142.668 109.209 142.483 109.01C142.302 108.811 142.022 108.711 141.644 108.711C141.111 108.711 140.736 108.862 140.519 109.164C140.302 109.465 140.194 109.903 140.194 110.478V113H139.464V108.184H140.053L140.163 108.878H140.203C140.305 108.708 140.436 108.566 140.594 108.452C140.752 108.334 140.929 108.247 141.125 108.188C141.322 108.126 141.528 108.096 141.745 108.096ZM146.329 115.162C145.696 115.162 145.208 115.043 144.865 114.806C144.522 114.572 144.351 114.242 144.351 113.817C144.351 113.516 144.446 113.258 144.637 113.044C144.83 112.83 145.097 112.688 145.437 112.618C145.311 112.559 145.202 112.471 145.111 112.354C145.023 112.237 144.979 112.102 144.979 111.95C144.979 111.774 145.028 111.62 145.125 111.488C145.224 111.354 145.375 111.225 145.577 111.102C145.325 110.999 145.12 110.826 144.962 110.583C144.807 110.337 144.729 110.051 144.729 109.726C144.729 109.38 144.801 109.086 144.944 108.843C145.088 108.597 145.296 108.409 145.568 108.28C145.841 108.151 146.17 108.087 146.557 108.087C146.642 108.087 146.727 108.091 146.812 108.1C146.9 108.106 146.983 108.116 147.062 108.131C147.142 108.143 147.21 108.157 147.269 108.175H148.921V108.645L148.034 108.755C148.122 108.869 148.195 109.007 148.253 109.168C148.312 109.329 148.341 109.508 148.341 109.704C148.341 110.185 148.179 110.567 147.854 110.851C147.528 111.132 147.082 111.273 146.513 111.273C146.378 111.273 146.241 111.261 146.1 111.238C145.957 111.317 145.847 111.405 145.771 111.501C145.697 111.598 145.661 111.709 145.661 111.835C145.661 111.929 145.688 112.004 145.744 112.06C145.803 112.115 145.886 112.156 145.995 112.183C146.103 112.206 146.233 112.218 146.386 112.218H147.234C147.758 112.218 148.16 112.328 148.438 112.547C148.719 112.767 148.86 113.088 148.86 113.51C148.86 114.043 148.643 114.452 148.209 114.736C147.776 115.02 147.149 115.162 146.329 115.162ZM146.351 114.591C146.749 114.591 147.079 114.55 147.339 114.468C147.603 114.389 147.799 114.273 147.928 114.121C148.06 113.971 148.126 113.792 148.126 113.584C148.126 113.391 148.082 113.245 147.994 113.145C147.906 113.048 147.777 112.984 147.607 112.952C147.438 112.917 147.229 112.899 146.983 112.899H146.148C145.932 112.899 145.743 112.933 145.582 113C145.42 113.067 145.296 113.167 145.208 113.299C145.123 113.431 145.081 113.595 145.081 113.791C145.081 114.052 145.19 114.25 145.41 114.384C145.63 114.522 145.943 114.591 146.351 114.591ZM146.54 110.741C146.888 110.741 147.15 110.653 147.326 110.478C147.502 110.302 147.59 110.045 147.59 109.708C147.59 109.348 147.5 109.079 147.322 108.9C147.143 108.718 146.879 108.627 146.531 108.627C146.197 108.627 145.939 108.721 145.757 108.909C145.579 109.093 145.489 109.364 145.489 109.722C145.489 110.05 145.58 110.302 145.762 110.478C145.943 110.653 146.203 110.741 146.54 110.741ZM153.764 112.49C153.884 112.49 154.007 112.48 154.133 112.459C154.259 112.439 154.362 112.414 154.441 112.385V112.952C154.356 112.99 154.237 113.022 154.085 113.048C153.936 113.075 153.789 113.088 153.646 113.088C153.391 113.088 153.159 113.044 152.951 112.956C152.743 112.865 152.576 112.713 152.45 112.499C152.327 112.285 152.266 111.989 152.266 111.611V108.755H151.58V108.399L152.27 108.113L152.56 107.067H153V108.184H154.41V108.755H153V111.589C153 111.891 153.068 112.117 153.206 112.266C153.347 112.416 153.533 112.49 153.764 112.49ZM159.569 110.583C159.569 110.979 159.518 111.332 159.416 111.642C159.313 111.953 159.165 112.215 158.972 112.429C158.778 112.643 158.544 112.807 158.269 112.921C157.996 113.032 157.687 113.088 157.341 113.088C157.019 113.088 156.723 113.032 156.454 112.921C156.187 112.807 155.956 112.643 155.759 112.429C155.566 112.215 155.415 111.953 155.307 111.642C155.201 111.332 155.148 110.979 155.148 110.583C155.148 110.056 155.238 109.607 155.417 109.238C155.595 108.866 155.85 108.583 156.181 108.39C156.515 108.194 156.912 108.096 157.372 108.096C157.812 108.096 158.195 108.194 158.523 108.39C158.854 108.586 159.111 108.871 159.292 109.243C159.477 109.612 159.569 110.059 159.569 110.583ZM155.904 110.583C155.904 110.97 155.956 111.305 156.058 111.589C156.161 111.874 156.319 112.093 156.533 112.249C156.747 112.404 157.022 112.481 157.359 112.481C157.693 112.481 157.967 112.404 158.181 112.249C158.397 112.093 158.557 111.874 158.66 111.589C158.762 111.305 158.813 110.97 158.813 110.583C158.813 110.199 158.762 109.868 158.66 109.59C158.557 109.309 158.399 109.092 158.185 108.939C157.971 108.787 157.694 108.711 157.354 108.711C156.854 108.711 156.486 108.876 156.251 109.208C156.02 109.539 155.904 109.997 155.904 110.583ZM166.284 111.682C166.284 111.989 166.207 112.249 166.051 112.459C165.899 112.667 165.679 112.824 165.392 112.93C165.108 113.035 164.768 113.088 164.373 113.088C164.036 113.088 163.744 113.062 163.498 113.009C163.252 112.956 163.037 112.881 162.852 112.785V112.112C163.048 112.209 163.283 112.297 163.555 112.376C163.828 112.455 164.106 112.495 164.39 112.495C164.806 112.495 165.108 112.427 165.295 112.292C165.483 112.158 165.577 111.975 165.577 111.743C165.577 111.611 165.539 111.496 165.462 111.396C165.389 111.293 165.265 111.195 165.089 111.102C164.913 111.005 164.67 110.899 164.359 110.785C164.052 110.668 163.785 110.552 163.56 110.438C163.337 110.321 163.164 110.179 163.041 110.012C162.921 109.845 162.861 109.628 162.861 109.361C162.861 108.954 163.025 108.642 163.353 108.425C163.684 108.206 164.118 108.096 164.654 108.096C164.944 108.096 165.215 108.125 165.467 108.184C165.722 108.239 165.959 108.315 166.179 108.412L165.933 108.997C165.733 108.912 165.521 108.84 165.295 108.781C165.07 108.723 164.84 108.693 164.605 108.693C164.269 108.693 164.009 108.749 163.828 108.86C163.649 108.972 163.56 109.124 163.56 109.317C163.56 109.467 163.601 109.59 163.683 109.687C163.768 109.783 163.902 109.874 164.087 109.959C164.271 110.044 164.515 110.144 164.816 110.258C165.118 110.369 165.379 110.485 165.599 110.605C165.818 110.722 165.987 110.866 166.104 111.036C166.224 111.203 166.284 111.418 166.284 111.682ZM169.312 108.096C169.722 108.096 170.074 108.187 170.367 108.368C170.66 108.55 170.884 108.805 171.039 109.133C171.194 109.458 171.272 109.839 171.272 110.275V110.728H167.945C167.954 111.293 168.095 111.724 168.367 112.02C168.64 112.316 169.023 112.464 169.519 112.464C169.823 112.464 170.093 112.436 170.327 112.38C170.562 112.325 170.805 112.243 171.057 112.134V112.776C170.813 112.884 170.572 112.963 170.332 113.013C170.094 113.063 169.813 113.088 169.488 113.088C169.025 113.088 168.621 112.994 168.275 112.807C167.932 112.616 167.666 112.338 167.475 111.972C167.285 111.605 167.189 111.157 167.189 110.627C167.189 110.108 167.276 109.66 167.449 109.282C167.625 108.901 167.871 108.608 168.187 108.403C168.506 108.198 168.881 108.096 169.312 108.096ZM169.303 108.693C168.914 108.693 168.603 108.821 168.372 109.076C168.14 109.331 168.002 109.687 167.958 110.144H170.507C170.504 109.856 170.459 109.604 170.371 109.388C170.286 109.168 170.156 108.998 169.98 108.878C169.804 108.755 169.579 108.693 169.303 108.693ZM174.313 108.104C174.887 108.104 175.313 108.233 175.592 108.491C175.87 108.749 176.009 109.161 176.009 109.726V113H175.478L175.337 112.288H175.302C175.167 112.464 175.026 112.612 174.88 112.732C174.733 112.849 174.563 112.938 174.37 113C174.18 113.059 173.945 113.088 173.667 113.088C173.374 113.088 173.113 113.037 172.885 112.934C172.659 112.832 172.48 112.676 172.349 112.468C172.22 112.26 172.155 111.997 172.155 111.677C172.155 111.197 172.346 110.828 172.727 110.57C173.107 110.312 173.688 110.171 174.467 110.148L175.297 110.113V109.818C175.297 109.402 175.208 109.111 175.029 108.944C174.851 108.777 174.599 108.693 174.273 108.693C174.021 108.693 173.781 108.73 173.553 108.803C173.324 108.876 173.107 108.963 172.902 109.062L172.678 108.509C172.895 108.397 173.144 108.302 173.425 108.223C173.707 108.144 174.002 108.104 174.313 108.104ZM175.289 110.627L174.555 110.658C173.954 110.681 173.531 110.779 173.285 110.952C173.039 111.125 172.916 111.37 172.916 111.686C172.916 111.961 172.999 112.165 173.166 112.297C173.333 112.429 173.554 112.495 173.83 112.495C174.257 112.495 174.607 112.376 174.88 112.139C175.152 111.901 175.289 111.545 175.289 111.071V110.627ZM179.701 108.096C179.797 108.096 179.898 108.102 180.004 108.113C180.109 108.122 180.203 108.135 180.285 108.153L180.193 108.83C180.114 108.809 180.026 108.793 179.929 108.781C179.833 108.77 179.742 108.764 179.657 108.764C179.463 108.764 179.28 108.803 179.107 108.882C178.938 108.958 178.788 109.07 178.659 109.216C178.53 109.36 178.429 109.534 178.356 109.739C178.283 109.941 178.246 110.167 178.246 110.416V113H177.512V108.184H178.119L178.198 109.071H178.229C178.328 108.893 178.448 108.73 178.589 108.583C178.729 108.434 178.892 108.315 179.077 108.228C179.264 108.14 179.472 108.096 179.701 108.096ZM183.124 113.088C182.69 113.088 182.308 112.999 181.977 112.82C181.646 112.641 181.388 112.369 181.204 112.002C181.019 111.636 180.927 111.175 180.927 110.618C180.927 110.035 181.023 109.559 181.217 109.19C181.413 108.818 181.683 108.542 182.025 108.364C182.368 108.185 182.758 108.096 183.194 108.096C183.435 108.096 183.666 108.121 183.889 108.17C184.114 108.217 184.299 108.277 184.442 108.351L184.223 108.961C184.076 108.903 183.906 108.85 183.713 108.803C183.522 108.756 183.344 108.733 183.177 108.733C182.843 108.733 182.564 108.805 182.342 108.948C182.122 109.092 181.957 109.303 181.845 109.581C181.737 109.859 181.683 110.202 181.683 110.609C181.683 110.999 181.735 111.332 181.841 111.607C181.949 111.882 182.109 112.093 182.32 112.24C182.534 112.383 182.8 112.455 183.12 112.455C183.375 112.455 183.604 112.429 183.81 112.376C184.015 112.32 184.201 112.256 184.368 112.183V112.833C184.207 112.915 184.026 112.978 183.827 113.022C183.631 113.066 183.396 113.088 183.124 113.088ZM186.24 106.162V108.206C186.24 108.323 186.237 108.441 186.231 108.562C186.225 108.679 186.215 108.787 186.2 108.887H186.249C186.348 108.717 186.474 108.575 186.626 108.46C186.782 108.343 186.958 108.255 187.154 108.197C187.35 108.135 187.558 108.104 187.778 108.104C188.165 108.104 188.487 108.166 188.745 108.289C189.005 108.412 189.2 108.603 189.329 108.86C189.461 109.118 189.527 109.452 189.527 109.862V113H188.806V109.911C188.806 109.509 188.714 109.209 188.529 109.01C188.348 108.811 188.068 108.711 187.69 108.711C187.333 108.711 187.047 108.78 186.833 108.917C186.622 109.052 186.47 109.251 186.376 109.515C186.285 109.779 186.24 110.101 186.24 110.482V113H185.51V106.162H186.24ZM195.169 108.104C195.744 108.104 196.17 108.233 196.448 108.491C196.727 108.749 196.866 109.161 196.866 109.726V113H196.334L196.193 112.288H196.158C196.023 112.464 195.883 112.612 195.736 112.732C195.59 112.849 195.42 112.938 195.227 113C195.036 113.059 194.802 113.088 194.523 113.088C194.23 113.088 193.97 113.037 193.741 112.934C193.516 112.832 193.337 112.676 193.205 112.468C193.076 112.26 193.012 111.997 193.012 111.677C193.012 111.197 193.202 110.828 193.583 110.57C193.964 110.312 194.544 110.171 195.323 110.148L196.154 110.113V109.818C196.154 109.402 196.064 109.111 195.886 108.944C195.707 108.777 195.455 108.693 195.13 108.693C194.878 108.693 194.638 108.73 194.409 108.803C194.181 108.876 193.964 108.963 193.759 109.062L193.535 108.509C193.751 108.397 194 108.302 194.282 108.223C194.563 108.144 194.859 108.104 195.169 108.104ZM196.145 110.627L195.411 110.658C194.811 110.681 194.387 110.779 194.141 110.952C193.895 111.125 193.772 111.37 193.772 111.686C193.772 111.961 193.855 112.165 194.022 112.297C194.189 112.429 194.411 112.495 194.686 112.495C195.114 112.495 195.464 112.376 195.736 112.139C196.009 111.901 196.145 111.545 196.145 111.071V110.627ZM200.557 108.096C200.654 108.096 200.755 108.102 200.86 108.113C200.966 108.122 201.06 108.135 201.142 108.153L201.049 108.83C200.97 108.809 200.882 108.793 200.786 108.781C200.689 108.77 200.598 108.764 200.513 108.764C200.32 108.764 200.137 108.803 199.964 108.882C199.794 108.958 199.645 109.07 199.516 109.216C199.387 109.36 199.286 109.534 199.212 109.739C199.139 109.941 199.103 110.167 199.103 110.416V113H198.369V108.184H198.975L199.054 109.071H199.085C199.185 108.893 199.305 108.73 199.445 108.583C199.586 108.434 199.749 108.315 199.933 108.228C200.121 108.14 200.329 108.096 200.557 108.096ZM203.607 112.49C203.727 112.49 203.85 112.48 203.976 112.459C204.102 112.439 204.205 112.414 204.284 112.385V112.952C204.199 112.99 204.08 113.022 203.928 113.048C203.778 113.075 203.632 113.088 203.488 113.088C203.233 113.088 203.002 113.044 202.794 112.956C202.586 112.865 202.419 112.713 202.293 112.499C202.17 112.285 202.108 111.989 202.108 111.611V108.755H201.423V108.399L202.113 108.113L202.403 107.067H202.842V108.184H204.253V108.755H202.842V111.589C202.842 111.891 202.911 112.117 203.049 112.266C203.189 112.416 203.375 112.49 203.607 112.49ZM205.989 108.184V113H205.259V108.184H205.989ZM205.633 106.382C205.753 106.382 205.855 106.421 205.94 106.5C206.028 106.577 206.072 106.697 206.072 106.861C206.072 107.022 206.028 107.142 205.94 107.221C205.855 107.3 205.753 107.34 205.633 107.34C205.507 107.34 205.401 107.3 205.316 107.221C205.234 107.142 205.193 107.022 205.193 106.861C205.193 106.697 205.234 106.577 205.316 106.5C205.401 106.421 205.507 106.382 205.633 106.382ZM209.465 113.088C209.031 113.088 208.649 112.999 208.318 112.82C207.987 112.641 207.729 112.369 207.544 112.002C207.36 111.636 207.268 111.175 207.268 110.618C207.268 110.035 207.364 109.559 207.558 109.19C207.754 108.818 208.023 108.542 208.366 108.364C208.709 108.185 209.099 108.096 209.535 108.096C209.775 108.096 210.007 108.121 210.229 108.17C210.455 108.217 210.64 108.277 210.783 108.351L210.563 108.961C210.417 108.903 210.247 108.85 210.054 108.803C209.863 108.756 209.685 108.733 209.518 108.733C209.184 108.733 208.905 108.805 208.683 108.948C208.463 109.092 208.297 109.303 208.186 109.581C208.078 109.859 208.023 110.202 208.023 110.609C208.023 110.999 208.076 111.332 208.182 111.607C208.29 111.882 208.45 112.093 208.661 112.24C208.875 112.383 209.141 112.455 209.46 112.455C209.715 112.455 209.945 112.429 210.15 112.376C210.355 112.32 210.542 112.256 210.708 112.183V112.833C210.547 112.915 210.367 112.978 210.168 113.022C209.972 113.066 209.737 113.088 209.465 113.088ZM212.585 113H211.851V106.162H212.585V113ZM215.982 108.096C216.392 108.096 216.744 108.187 217.037 108.368C217.33 108.55 217.554 108.805 217.709 109.133C217.864 109.458 217.942 109.839 217.942 110.275V110.728H214.615C214.624 111.293 214.765 111.724 215.037 112.02C215.31 112.316 215.693 112.464 216.188 112.464C216.493 112.464 216.763 112.436 216.997 112.38C217.231 112.325 217.475 112.243 217.727 112.134V112.776C217.483 112.884 217.242 112.963 217.001 113.013C216.764 113.063 216.483 113.088 216.158 113.088C215.695 113.088 215.291 112.994 214.945 112.807C214.602 112.616 214.335 112.338 214.145 111.972C213.955 111.605 213.859 111.157 213.859 110.627C213.859 110.108 213.946 109.66 214.119 109.282C214.294 108.901 214.541 108.608 214.857 108.403C215.176 108.198 215.551 108.096 215.982 108.096ZM215.973 108.693C215.583 108.693 215.273 108.821 215.042 109.076C214.81 109.331 214.672 109.687 214.628 110.144H217.177C217.174 109.856 217.129 109.604 217.041 109.388C216.956 109.168 216.826 108.998 216.65 108.878C216.474 108.755 216.249 108.693 215.973 108.693ZM222.297 111.682C222.297 111.989 222.219 112.249 222.064 112.459C221.912 112.667 221.692 112.824 221.405 112.93C221.121 113.035 220.781 113.088 220.385 113.088C220.048 113.088 219.757 113.062 219.511 113.009C219.265 112.956 219.049 112.881 218.865 112.785V112.112C219.061 112.209 219.295 112.297 219.568 112.376C219.84 112.455 220.119 112.495 220.403 112.495C220.819 112.495 221.121 112.427 221.308 112.292C221.496 112.158 221.589 111.975 221.589 111.743C221.589 111.611 221.551 111.496 221.475 111.396C221.402 111.293 221.277 111.195 221.102 111.102C220.926 111.005 220.683 110.899 220.372 110.785C220.064 110.668 219.798 110.552 219.572 110.438C219.35 110.321 219.177 110.179 219.054 110.012C218.934 109.845 218.874 109.628 218.874 109.361C218.874 108.954 219.038 108.642 219.366 108.425C219.697 108.206 220.13 108.096 220.667 108.096C220.957 108.096 221.228 108.125 221.479 108.184C221.734 108.239 221.972 108.315 222.191 108.412L221.945 108.997C221.746 108.912 221.534 108.84 221.308 108.781C221.083 108.723 220.853 108.693 220.618 108.693C220.281 108.693 220.022 108.749 219.84 108.86C219.662 108.972 219.572 109.124 219.572 109.317C219.572 109.467 219.613 109.59 219.695 109.687C219.78 109.783 219.915 109.874 220.1 109.959C220.284 110.044 220.527 110.144 220.829 110.258C221.131 110.369 221.392 110.485 221.611 110.605C221.831 110.722 222 110.866 222.117 111.036C222.237 111.203 222.297 111.418 222.297 111.682Z" fill="#ccc"/></svg>