<svg width="320" height="121" viewBox="0 0 320 121" fill="none" xmlns="http://www.w3.org/2000/svg"><path d="M114.126 4.126C116.405 1.84729 120.099 1.84729 122.378 4.126L198.433 80.1812C200.712 82.4599 200.712 86.1544 198.433 88.4331V88.4331C196.154 90.7118 192.46 90.7118 190.181 88.4331L114.126 12.3779C111.847 10.0992 111.847 6.40471 114.126 4.126V4.126Z" fill="#ccc"/><path d="M115.875 88.4331C113.596 86.1544 113.596 82.4599 115.875 80.1812L191.93 4.12597C194.208 1.84726 197.903 1.84726 200.182 4.12597V4.12597C202.46 6.40468 202.46 10.0992 200.182 12.3779L124.126 88.4331C121.848 90.7118 118.153 90.7118 115.875 88.4331V88.4331Z" fill="#ccc"/><path d="M143.542 116H142.681L139.179 110.604H139.144C139.152 110.747 139.163 110.911 139.174 111.096C139.186 111.277 139.195 111.472 139.201 111.68C139.209 111.885 139.214 112.095 139.214 112.309V116H138.52V109.575H139.376L142.866 114.954H142.896C142.891 114.852 142.883 114.707 142.875 114.519C142.866 114.329 142.857 114.125 142.848 113.908C142.842 113.688 142.839 113.485 142.839 113.297V109.575H143.542V116ZM149.339 113.583C149.339 113.979 149.288 114.332 149.185 114.642C149.083 114.953 148.935 115.215 148.741 115.429C148.548 115.643 148.313 115.807 148.038 115.921C147.766 116.032 147.457 116.088 147.111 116.088C146.789 116.088 146.493 116.032 146.223 115.921C145.957 115.807 145.725 115.643 145.529 115.429C145.335 115.215 145.185 114.953 145.076 114.642C144.971 114.332 144.918 113.979 144.918 113.583C144.918 113.056 145.007 112.607 145.186 112.238C145.365 111.866 145.62 111.583 145.951 111.39C146.285 111.194 146.682 111.096 147.142 111.096C147.581 111.096 147.965 111.194 148.293 111.39C148.624 111.586 148.88 111.871 149.062 112.243C149.247 112.612 149.339 113.059 149.339 113.583ZM145.674 113.583C145.674 113.97 145.725 114.305 145.828 114.589C145.93 114.874 146.088 115.093 146.302 115.249C146.516 115.404 146.792 115.481 147.128 115.481C147.462 115.481 147.736 115.404 147.95 115.249C148.167 115.093 148.327 114.874 148.429 114.589C148.532 114.305 148.583 113.97 148.583 113.583C148.583 113.199 148.532 112.868 148.429 112.59C148.327 112.309 148.168 112.092 147.955 111.939C147.741 111.787 147.464 111.711 147.124 111.711C146.623 111.711 146.255 111.876 146.021 112.208C145.79 112.539 145.674 112.997 145.674 113.583ZM154.784 109.575C155.311 109.575 155.746 109.641 156.089 109.773C156.435 109.902 156.692 110.1 156.862 110.366C157.032 110.633 157.117 110.973 157.117 111.386C157.117 111.726 157.056 112.01 156.933 112.238C156.81 112.464 156.648 112.647 156.449 112.788C156.25 112.928 156.038 113.037 155.812 113.113L157.574 116H156.704L155.131 113.319H153.795V116H153.048V109.575H154.784ZM154.74 110.221H153.795V112.687H154.814C155.339 112.687 155.724 112.58 155.97 112.366C156.219 112.152 156.344 111.837 156.344 111.421C156.344 110.984 156.212 110.675 155.948 110.494C155.688 110.312 155.285 110.221 154.74 110.221ZM160.347 111.096C160.757 111.096 161.109 111.187 161.402 111.368C161.695 111.55 161.919 111.805 162.074 112.133C162.229 112.458 162.307 112.839 162.307 113.275V113.728H158.98C158.989 114.293 159.13 114.724 159.402 115.02C159.675 115.316 160.059 115.464 160.554 115.464C160.858 115.464 161.128 115.436 161.362 115.38C161.597 115.325 161.84 115.243 162.092 115.134V115.776C161.849 115.884 161.607 115.963 161.367 116.013C161.129 116.063 160.848 116.088 160.523 116.088C160.06 116.088 159.656 115.994 159.31 115.807C158.967 115.616 158.701 115.338 158.51 114.972C158.32 114.605 158.225 114.157 158.225 113.627C158.225 113.108 158.311 112.66 158.484 112.282C158.66 111.901 158.906 111.608 159.222 111.403C159.542 111.198 159.917 111.096 160.347 111.096ZM160.338 111.693C159.949 111.693 159.638 111.821 159.407 112.076C159.175 112.331 159.038 112.687 158.994 113.144H161.542C161.54 112.856 161.494 112.604 161.406 112.388C161.321 112.168 161.191 111.998 161.015 111.878C160.839 111.755 160.614 111.693 160.338 111.693ZM166.662 114.682C166.662 114.989 166.584 115.249 166.429 115.459C166.277 115.667 166.057 115.824 165.77 115.93C165.486 116.035 165.146 116.088 164.75 116.088C164.414 116.088 164.122 116.062 163.876 116.009C163.63 115.956 163.415 115.881 163.23 115.785V115.112C163.426 115.209 163.661 115.297 163.933 115.376C164.206 115.455 164.484 115.495 164.768 115.495C165.184 115.495 165.486 115.427 165.673 115.292C165.861 115.158 165.955 114.975 165.955 114.743C165.955 114.611 165.917 114.496 165.84 114.396C165.767 114.293 165.643 114.195 165.467 114.102C165.291 114.005 165.048 113.899 164.737 113.785C164.43 113.668 164.163 113.552 163.938 113.438C163.715 113.321 163.542 113.179 163.419 113.012C163.299 112.845 163.239 112.628 163.239 112.361C163.239 111.954 163.403 111.642 163.731 111.425C164.062 111.206 164.496 111.096 165.032 111.096C165.322 111.096 165.593 111.125 165.845 111.184C166.1 111.239 166.337 111.315 166.557 111.412L166.311 111.997C166.111 111.912 165.899 111.84 165.673 111.781C165.448 111.723 165.218 111.693 164.983 111.693C164.646 111.693 164.387 111.749 164.206 111.86C164.027 111.972 163.938 112.124 163.938 112.317C163.938 112.467 163.979 112.59 164.061 112.687C164.146 112.783 164.28 112.874 164.465 112.959C164.649 113.044 164.893 113.144 165.194 113.258C165.496 113.369 165.757 113.485 165.977 113.605C166.196 113.722 166.365 113.866 166.482 114.036C166.602 114.203 166.662 114.418 166.662 114.682ZM171.812 111.184V116H171.215L171.109 115.323H171.07C170.97 115.49 170.841 115.631 170.683 115.745C170.525 115.859 170.346 115.944 170.147 116C169.951 116.059 169.741 116.088 169.519 116.088C169.138 116.088 168.818 116.026 168.561 115.903C168.303 115.78 168.108 115.59 167.976 115.332C167.847 115.074 167.783 114.743 167.783 114.339V111.184H168.521V114.286C168.521 114.688 168.612 114.988 168.793 115.187C168.975 115.383 169.252 115.481 169.624 115.481C169.981 115.481 170.266 115.414 170.477 115.279C170.69 115.145 170.844 114.947 170.938 114.686C171.032 114.422 171.079 114.1 171.079 113.719V111.184H171.812ZM174.089 116H173.355V109.162H174.089V116ZM177.187 115.49C177.307 115.49 177.43 115.48 177.556 115.459C177.682 115.439 177.785 115.414 177.864 115.385V115.952C177.779 115.99 177.66 116.022 177.508 116.048C177.358 116.075 177.212 116.088 177.068 116.088C176.813 116.088 176.582 116.044 176.374 115.956C176.166 115.865 175.999 115.713 175.873 115.499C175.75 115.285 175.688 114.989 175.688 114.611V111.755H175.003V111.399L175.693 111.113L175.983 110.067H176.422V111.184H177.833V111.755H176.422V114.589C176.422 114.891 176.491 115.117 176.629 115.266C176.77 115.416 176.956 115.49 177.187 115.49ZM181.955 114.682C181.955 114.989 181.877 115.249 181.722 115.459C181.57 115.667 181.35 115.824 181.063 115.93C180.779 116.035 180.439 116.088 180.043 116.088C179.707 116.088 179.415 116.062 179.169 116.009C178.923 115.956 178.708 115.881 178.523 115.785V115.112C178.719 115.209 178.954 115.297 179.226 115.376C179.499 115.455 179.777 115.495 180.061 115.495C180.477 115.495 180.779 115.427 180.966 115.292C181.154 115.158 181.248 114.975 181.248 114.743C181.248 114.611 181.209 114.496 181.133 114.396C181.06 114.293 180.936 114.195 180.76 114.102C180.584 114.005 180.341 113.899 180.03 113.785C179.723 113.668 179.456 113.552 179.23 113.438C179.008 113.321 178.835 113.179 178.712 113.012C178.592 112.845 178.532 112.628 178.532 112.361C178.532 111.954 178.696 111.642 179.024 111.425C179.355 111.206 179.789 111.096 180.325 111.096C180.615 111.096 180.886 111.125 181.138 111.184C181.393 111.239 181.63 111.315 181.85 111.412L181.604 111.997C181.404 111.912 181.192 111.84 180.966 111.781C180.741 111.723 180.511 111.693 180.276 111.693C179.939 111.693 179.68 111.749 179.499 111.86C179.32 111.972 179.23 112.124 179.23 112.317C179.23 112.467 179.271 112.59 179.354 112.687C179.438 112.783 179.573 112.874 179.758 112.959C179.942 113.044 180.186 113.144 180.487 113.258C180.789 113.369 181.05 113.485 181.27 113.605C181.489 113.722 181.658 113.866 181.775 114.036C181.895 114.203 181.955 114.418 181.955 114.682Z" fill="#ccc"/></svg>